<svg width="284" height="31" viewBox="0 0 284 31" fill="none" xmlns="http://www.w3.org/2000/svg">
<path d="M6.60511 30H0.980114L11.2216 0.90909H17.7273L27.983 30H22.358L14.5881 6.875H14.3608L6.60511 30ZM6.78977 18.5938H22.1307V22.8267H6.78977V18.5938ZM31.8146 30V0.90909H42.7237C44.9586 0.90909 46.8336 1.29735 48.3487 2.07386C49.8733 2.85038 51.0239 3.93939 51.8004 5.34091C52.5864 6.73295 52.9794 8.35701 52.9794 10.2131C52.9794 12.0786 52.5817 13.6979 51.7862 15.071C51.0002 16.4347 49.8402 17.4905 48.3061 18.2386C46.772 18.9773 44.8875 19.3466 42.6527 19.3466H34.8828V14.9716H41.9425C43.2493 14.9716 44.3194 14.7917 45.1527 14.4318C45.986 14.0625 46.6016 13.5275 46.9993 12.8267C47.4065 12.1165 47.6101 11.2453 47.6101 10.2131C47.6101 9.18087 47.4065 8.30019 46.9993 7.57102C46.5921 6.83239 45.9718 6.27367 45.1385 5.89489C44.3052 5.50663 43.2304 5.3125 41.9141 5.3125H37.0845V30H31.8146ZM46.843 16.8182L54.0447 30H48.1641L41.0902 16.8182H46.843ZM63.1001 0.90909V30H57.8303V0.90909H63.1001ZM72.5426 30H66.9176L77.1591 0.90909H83.6648L93.9205 30H88.2955L80.5256 6.875H80.2983L72.5426 30ZM72.7273 18.5938H88.0682V22.8267H72.7273V18.5938ZM121.658 0.90909V30H116.971L103.263 10.1847H103.022V30H97.7521V0.90909H102.468L116.161 20.7386H116.417V0.90909H121.658ZM131.136 30H125.511L135.753 0.90909H142.259L152.514 30H146.889L139.119 6.875H138.892L131.136 30ZM131.321 18.5938H146.662V22.8267H131.321V18.5938ZM165.934 30V0.90909H175.323C177.388 0.90909 179.111 1.30682 180.494 2.10227C181.886 2.88826 182.932 3.95833 183.633 5.3125C184.343 6.66667 184.698 8.19129 184.698 9.88636C184.698 11.5814 184.348 13.1108 183.647 14.4744C182.946 15.8286 181.905 16.9034 180.522 17.6989C179.139 18.4848 177.421 18.8778 175.366 18.8778H167.979V16.4915H175.295C176.819 16.4915 178.084 16.2074 179.087 15.6392C180.091 15.0616 180.839 14.2756 181.332 13.2812C181.834 12.2869 182.085 11.1553 182.085 9.88636C182.085 8.61742 181.834 7.4858 181.332 6.49148C180.839 5.49716 180.086 4.71591 179.073 4.14773C178.069 3.57954 176.796 3.29545 175.252 3.29545H168.59V30H165.934ZM188.008 30H185.224L195.806 0.90909H198.647L209.229 30H206.445L197.326 4.3608H197.127L188.008 30ZM190.011 18.8494H204.442V21.2358H190.011V18.8494ZM214.215 30V0.90909H223.604C225.669 0.90909 227.392 1.28314 228.775 2.03125C230.167 2.76989 231.213 3.79735 231.914 5.11364C232.624 6.42045 232.979 7.9214 232.979 9.61648C232.979 11.3116 232.624 12.8078 231.914 14.1051C231.213 15.4025 230.172 16.4157 228.789 17.1449C227.406 17.8741 225.692 18.2386 223.647 18.2386H215.65V15.8097H223.576C225.091 15.8097 226.351 15.5587 227.354 15.0568C228.368 14.5549 229.121 13.84 229.613 12.9119C230.115 11.9839 230.366 10.8854 230.366 9.61648C230.366 8.34754 230.115 7.23958 229.613 6.29261C229.111 5.33617 228.353 4.59754 227.34 4.0767C226.336 3.55587 225.067 3.29545 223.533 3.29545H216.871V30H214.215ZM227.042 16.875L234.201 30H231.133L224.045 16.875H227.042ZM239.45 30V0.90909H242.106V16.5767H242.362L256.566 0.90909H260.06L247.631 14.3608L260.004 30H256.765L245.984 16.2074L242.106 20.554V30H239.45ZM280.87 8.18182C280.709 6.5625 279.994 5.27462 278.725 4.31818C277.456 3.36174 275.861 2.88352 273.938 2.88352C272.584 2.88352 271.391 3.11553 270.359 3.57955C269.336 4.04356 268.531 4.6875 267.944 5.51136C267.366 6.32576 267.077 7.25379 267.077 8.29545C267.077 9.0625 267.243 9.73485 267.575 10.3125C267.906 10.8902 268.351 11.3873 268.91 11.804C269.478 12.2112 270.103 12.5616 270.785 12.8551C271.476 13.1487 272.172 13.3949 272.873 13.5938L275.941 14.4744C276.869 14.7301 277.797 15.0568 278.725 15.4545C279.653 15.8523 280.501 16.3542 281.268 16.9602C282.044 17.5568 282.665 18.2907 283.129 19.1619C283.602 20.0237 283.839 21.0606 283.839 22.2727C283.839 23.8258 283.436 25.2225 282.631 26.4631C281.826 27.7036 280.671 28.6884 279.165 29.4176C277.66 30.1373 275.856 30.4972 273.754 30.4972C271.774 30.4972 270.056 30.1705 268.597 29.517C267.139 28.8542 265.993 27.9403 265.16 26.7756C264.326 25.6108 263.858 24.2614 263.754 22.7273H266.481C266.576 23.8731 266.954 24.8437 267.617 25.6392C268.28 26.4347 269.142 27.0407 270.202 27.4574C271.263 27.8646 272.447 28.0682 273.754 28.0682C275.202 28.0682 276.49 27.8267 277.617 27.3438C278.754 26.8513 279.644 26.1695 280.288 25.2983C280.941 24.4176 281.268 23.3949 281.268 22.2301C281.268 21.2453 281.012 20.4214 280.501 19.7585C279.989 19.0862 279.274 18.5227 278.356 18.0682C277.447 17.6136 276.391 17.2112 275.188 16.8608L271.708 15.8381C269.426 15.1562 267.655 14.214 266.396 13.0114C265.136 11.8087 264.506 10.2746 264.506 8.40909C264.506 6.84659 264.923 5.47348 265.756 4.28977C266.599 3.09659 267.736 2.16856 269.165 1.50568C270.605 0.833332 272.219 0.497158 274.009 0.497158C275.818 0.497158 277.418 0.828598 278.81 1.49148C280.202 2.15436 281.306 3.06818 282.12 4.23295C282.944 5.38826 283.384 6.70454 283.441 8.18182H280.87Z" fill="white"/>
</svg>
