<svg width="63" height="44" viewBox="0 0 63 44" fill="none" xmlns="http://www.w3.org/2000/svg">
<rect x="23" y="11" width="20" height="21" fill="white"/>
<path d="M30.6329 44C23.9663 43.634 16.4368 43.3203 8.93358 42.7451C4.30613 42.4052 1.84862 40.0523 1.03816 35.451C-0.112165 29.0196 -0.164452 22.5359 0.20156 16.0523C0.358423 13.2288 0.646005 10.4052 1.11659 7.63399C1.74404 3.81699 4.2277 1.35948 8.09698 0.915033C12.5937 0.418301 17.1166 0 21.6395 0C31.3127 0 40.9597 0.261438 50.6329 0.444444C52.1492 0.470588 53.6656 0.705882 55.1558 0.993464C58.9205 1.6732 61.195 4.15686 61.8747 8.75817C63.1558 17.4641 63.1558 26.2222 61.8224 34.9281C60.9858 40.5229 58.3192 42.6667 52.2277 43.0065C45.3257 43.3987 38.3976 43.6601 30.6329 44ZM25.2212 31.1634C30.7113 28 36.0185 24.9412 41.4564 21.8039C35.9401 18.6144 30.6329 15.5817 25.2212 12.4444C25.2212 18.719 25.2212 24.8105 25.2212 31.1634Z" fill="#FF0000"/>
</svg>
